<?xml version="1.0" encoding="utf-8"?>

<!DOCTYPE svg PUBLIC "-//W3C//DTD SVG 1.1//EN" "http://www.w3.org/Graphics/SVG/1.1/DTD/svg11.dtd">
<svg version="1.1" id="Layer_1" xmlns="http://www.w3.org/2000/svg" xmlns:xlink="http://www.w3.org/1999/xlink" x="0px" y="0px"
	 viewBox="0 0 2643.598 1663.957" enable-background="new 0 0 2643.598 1663.957" xml:space="preserve">
<g>
	<path d="M1343.348,1612.081c-253.353-15.597-506.657-23.945-760.174-17.915c-161.705,3.847-322.784,15.47-483.189,36.073
		c-21.884,2.811-43.62,5.788-48.423-22.072c-4.832-28.027,14.132-38.49,38.842-41.938c154.804-21.602,310.51-32.739,466.609-36.932
		c390.586-10.492,780.613,13.579,1170.923,20.522c269.987,4.802,539.638-0.716,807.852-36.985
		c21.654-2.928,51.459-12.187,56.385,21.985c5.169,35.857-22.871,40.089-50.666,43.631
		c-312.139,39.777-625.516,42.843-939.431,33.999C1515.898,1610.023,1429.594,1612.081,1343.348,1612.081z"/>
	<path d="M1095.493,1289.059c-58.746,5.401-10.961,50.002-50.541,47.938c-26.135-1.362-12.396-11.242-15.4-224.505
		c-2.305-163.615-30.093-307.668-32.993-334.791c-3.328-31.113,33.778-30.068,34.569-6.961c0.881,25.744,18.14,29.702,38.835,31.559
		c169.701,15.233,339.142,13.628,508.432-6.102c51.391-5.99,10.313-47.919,52.218-41.585c15.18,2.295,15.047,12.597,13.232,24.573
		c-26.58,175.42-30.191,351.722-20.12,528.553c0.677,11.88,3.861,26.244-13.675,29.427c-17.215,3.125-21.589-8.283-21.356-22.13
		c0.411-24.485-17.018-23.658-33.664-25.24C1400.098,1275.069,1228.584,1276.824,1095.493,1289.059z M1536.097,1026.516
		c12.723,0.128,29.272-5.653,30.376,16.285c1.112,22.092-15.742,18.545-28.581,18.892c-192.532,5.215-200.647-5.491-199.189,28.386
		c8.304,192.999-49.809,143.05,217.889,164.263c19.34,1.533,27.366-2.362,26.489-23.313
		c-15.115-361.17,48.792-405.665-12.098-398.581c-235.982,27.455-228.329-11.769-229.987,83.195
		c-0.619,35.466-13.716,81.788,3.565,103.63C1363.096,1042.699,1375.146,1024.896,1536.097,1026.516z M1275.381,1242.747
		c44.083-1.224,23.21-22.754,27.565-147.08c1.436-40.98-8.695-29.076-198.545-33.95c-13.128-0.337-29.918,2.345-28.856-18.961
		c1.059-21.245,17.655-16.413,30.689-16.304c192.328,1.601,197.321,9.858,196.849-21.865
		c-2.112-142.119,14.25-156.973-25.535-157.248c-226.194-1.565-238.571-29.514-231.517,18.919
		C1115.323,1341.982,960.024,1251.5,1275.381,1242.747z"/>
	<path d="M1281.238,32.677c75.891,53.14,438.252,352.212,1006.015,647.14c21.029,10.924,35.2,21.324,20.058,46.736
		c-13.166,22.094-27.793,24.156-50.977,11.961c-348.637-183.381-679.256-394.646-990.048-636.801
		c-12.858-10.019-28.827-18.795-18.513-39.587C1254.596,48.369,1262.565,35.662,1281.238,32.677z"/>
	<path d="M1165.607,94.294C972.238,354.417,753.486,591.042,509.754,804.767c-23.065,20.225-37.074,13.623-54.628-4.538
		c-19.244-19.91-4.8-31.081,9.034-43.153C707.376,544.853,925.107,309.081,1117.67,50.035c6.992-9.406,12.134-23.793,28.38-15.653
		C1199.392,61.11,1171.723,86.067,1165.607,94.294z"/>
	<path d="M1873.813,710.692c3.443-22.675,9.708-35.073,35.364-31.485c24.716,3.456,34.451,11.323,30.204,40.051
		c-35.929,243.049-46.5,487.089-23.567,732.153c2.034,21.737,11.718,48.605-25.796,52.192c-24.393,2.333-37.681-2.935-38.876-31.926
		C1846.403,1356.733,1816.892,1085.505,1873.813,710.692z"/>
	<path d="M806.549,1471.249c0.405,25.398-7.366,37.778-35.174,36.354c-28.441-1.457-32.116-16.371-30.936-40.452
		c11.637-237.462-1.441-473.489-45.079-707.395c-4.477-23.999,4.261-33.055,24.748-36.997c20.555-3.955,35.248-3.868,40.238,24.489
		C820.461,1088.873,803.228,1263.125,806.549,1471.249z"/>
	<path d="M1464.685,498.161c24.16,63.925,74.482,10.572,67.507,61.832c-2.875,21.128-15.139,21.45-32.366,19.066
		c-154.446-21.375-308.719-16.985-462.677,5.281c-16.912,2.446-32.516,8.093-37.798-16.203
		c-10.525-48.406,43.616-3.028,63.951-61.02C1130.315,315.996,1397.108,319.353,1464.685,498.161z M1108.32,526.767
		c97.802-4.454,189.012-13.685,280.437-4.665c8.5,0.839,20.238,6.236,25.942-4.206c7.037-12.882-44.909-112.566-164.684-102.034
		C1182.297,421.815,1137.002,457.138,1108.32,526.767z"/>
</g>
</svg>
